<?xml version="1.0" encoding="UTF-8" standalone="no"?>
<svg
   xmlns:dc="http://purl.org/dc/elements/1.1/"
   xmlns:cc="http://creativecommons.org/ns#"
   xmlns:rdf="http://www.w3.org/1999/02/22-rdf-syntax-ns#"
   xmlns:svg="http://www.w3.org/2000/svg"
   xmlns="http://www.w3.org/2000/svg"
   xmlns:sodipodi="http://sodipodi.sourceforge.net/DTD/sodipodi-0.dtd"
   xmlns:inkscape="http://www.inkscape.org/namespaces/inkscape"
   width="48"
   height="48"
   viewBox="0 0 12.7 12.7"
   version="1.1"
   id="svg890"
   inkscape:version="1.0.2 (e86c870879, 2021-01-15)"
   sodipodi:docname="holacracy_super_circle.svg">
  <defs
     id="defs884">
    <inkscape:path-effect
       effect="fillet_chamfer"
       id="path-effect1629"
       is_visible="true"
       lpeversion="1"
       satellites_param="F,0,1,1,0,0.29652697,0,1 @ F,0,0,1,0,0,0,1 @ F,0,0,1,0,0,0,1 @ F,0,0,1,0,0,0,1 @ F,0,1,1,0,0.29652697,0,1 @ F,0,0,1,0,0.29652697,0,1 @ F,0,0,1,0,0,0,1 @ F,0,0,1,0,0,0,1 @ F,0,0,1,0,0,0,1 @ F,0,1,1,0,0.29652697,0,1"
       unit="px"
       method="auto"
       mode="F"
       radius="0"
       chamfer_steps="1"
       flexible="false"
       use_knot_distance="true"
       apply_no_radius="true"
       apply_with_radius="true"
       only_selected="false"
       hide_knots="false" />
    <inkscape:path-effect
       effect="fillet_chamfer"
       id="path-effect1608"
       is_visible="true"
       lpeversion="1"
       satellites_param="F,0,1,1,0,0.44377035,0,1 @ F,0,1,1,0,0.44377035,0,1 @ F,0,0,1,0,0.44377035,0,1 @ F,0,1,1,0,0.44377035,0,1"
       unit="px"
       method="auto"
       mode="F"
       radius="0"
       chamfer_steps="1"
       flexible="false"
       use_knot_distance="true"
       apply_no_radius="true"
       apply_with_radius="true"
       only_selected="false"
       hide_knots="false" />
    <inkscape:path-effect
       effect="fillet_chamfer"
       id="path-effect1604"
       is_visible="true"
       lpeversion="1"
       satellites_param="F,0,1,1,0,0.44377035,0,1 @ F,0,1,1,0,0.44377035,0,1 @ F,0,0,1,0,0.44377035,0,1 @ F,0,1,1,0,0.44377035,0,1"
       unit="px"
       method="auto"
       mode="F"
       radius="0"
       chamfer_steps="1"
       flexible="false"
       use_knot_distance="true"
       apply_no_radius="true"
       apply_with_radius="true"
       only_selected="false"
       hide_knots="false" />
    <inkscape:path-effect
       effect="fillet_chamfer"
       id="path-effect1599"
       is_visible="true"
       lpeversion="1"
       satellites_param="F,0,1,1,0,0.44377035,0,1 @ F,0,1,1,0,0.44377035,0,1 @ F,0,0,1,0,0.44377035,0,1 @ F,0,1,1,0,0.44377035,0,1"
       unit="px"
       method="auto"
       mode="F"
       radius="0"
       chamfer_steps="1"
       flexible="false"
       use_knot_distance="true"
       apply_no_radius="true"
       apply_with_radius="true"
       only_selected="false"
       hide_knots="false" />
    <inkscape:path-effect
       effect="fillet_chamfer"
       id="path-effect1595"
       is_visible="true"
       lpeversion="1"
       satellites_param="F,0,1,1,0,0.44377035,0,1 @ F,0,1,1,0,0.44377035,0,1 @ F,0,0,1,0,0.44377035,0,1 @ F,0,1,1,0,0.44377035,0,1"
       unit="px"
       method="auto"
       mode="F"
       radius="0"
       chamfer_steps="1"
       flexible="false"
       use_knot_distance="true"
       apply_no_radius="true"
       apply_with_radius="true"
       only_selected="false"
       hide_knots="false" />
    <inkscape:path-effect
       effect="fillet_chamfer"
       id="path-effect1590"
       is_visible="true"
       lpeversion="1"
       satellites_param="F,0,1,1,0,0.44377035,0,1 @ F,0,1,1,0,0.44377035,0,1 @ F,0,0,1,0,0.44377035,0,1 @ F,0,1,1,0,0.44377035,0,1"
       unit="px"
       method="auto"
       mode="F"
       radius="0"
       chamfer_steps="1"
       flexible="false"
       use_knot_distance="true"
       apply_no_radius="true"
       apply_with_radius="true"
       only_selected="false"
       hide_knots="false" />
    <inkscape:path-effect
       effect="fillet_chamfer"
       id="path-effect1586"
       is_visible="true"
       lpeversion="1"
       satellites_param="F,0,1,1,0,0.44377035,0,1 @ F,0,1,1,0,0.44377035,0,1 @ F,0,0,1,0,0.44377035,0,1 @ F,0,1,1,0,0.44377035,0,1"
       unit="px"
       method="auto"
       mode="F"
       radius="0"
       chamfer_steps="1"
       flexible="false"
       use_knot_distance="true"
       apply_no_radius="true"
       apply_with_radius="true"
       only_selected="false"
       hide_knots="false" />
    <inkscape:path-effect
       effect="fillet_chamfer"
       id="path-effect1582"
       is_visible="true"
       lpeversion="1"
       satellites_param="F,0,1,1,0,0.44377035,0,1 @ F,0,1,1,0,0.44377035,0,1 @ F,0,0,1,0,0.44377035,0,1 @ F,0,1,1,0,0.44377035,0,1"
       unit="px"
       method="auto"
       mode="F"
       radius="0"
       chamfer_steps="1"
       flexible="false"
       use_knot_distance="true"
       apply_no_radius="true"
       apply_with_radius="true"
       only_selected="false"
       hide_knots="false" />
    <inkscape:path-effect
       effect="fillet_chamfer"
       id="path-effect1566"
       is_visible="true"
       lpeversion="1"
       satellites_param="F,0,1,1,0,0.44377035,0,1 @ F,0,1,1,0,0.44377035,0,1 @ F,0,0,1,0,0.44377035,0,1 @ F,0,1,1,0,0.44377035,0,1"
       unit="px"
       method="auto"
       mode="F"
       radius="0"
       chamfer_steps="1"
       flexible="false"
       use_knot_distance="true"
       apply_no_radius="true"
       apply_with_radius="true"
       only_selected="false"
       hide_knots="false" />
    <inkscape:path-effect
       effect="fillet_chamfer"
       id="path-effect1563"
       is_visible="true"
       lpeversion="1"
       satellites_param="F,0,0,1,0,0,0,1 @ F,0,0,1,0,0,0,1 @ F,0,0,1,0,0,0,1 @ F,0,0,1,0,0,0,1"
       unit="px"
       method="auto"
       mode="F"
       radius="0"
       chamfer_steps="1"
       flexible="false"
       use_knot_distance="true"
       apply_no_radius="true"
       apply_with_radius="true"
       only_selected="false"
       hide_knots="false" />
    <inkscape:path-effect
       effect="fillet_chamfer"
       id="path-effect1561"
       is_visible="true"
       lpeversion="1"
       satellites_param="F,0,0,1,0,0.6148923,0,1 @ F,0,0,1,0,0.9044248,0,1 @ F,0,0,1,0,0.9044248,0,1"
       unit="px"
       method="auto"
       mode="F"
       radius="0"
       chamfer_steps="1"
       flexible="false"
       use_knot_distance="true"
       apply_no_radius="true"
       apply_with_radius="true"
       only_selected="false"
       hide_knots="false" />
  </defs>
  <sodipodi:namedview
     id="base"
     pagecolor="#ffffff"
     bordercolor="#666666"
     borderopacity="1.0"
     inkscape:pageopacity="0.0"
     inkscape:pageshadow="2"
     inkscape:zoom="3.959798"
     inkscape:cx="36.246586"
     inkscape:cy="19.350321"
     inkscape:document-units="mm"
     inkscape:current-layer="layer1"
     inkscape:document-rotation="0"
     showgrid="false"
     units="px"
     inkscape:pagecheckerboard="true"
     inkscape:object-paths="false"
     inkscape:window-width="1514"
     inkscape:window-height="1010"
     inkscape:window-x="1970"
     inkscape:window-y="0"
     inkscape:window-maximized="0" />
  <metadata
     id="metadata887">
    <rdf:RDF>
      <cc:Work
         rdf:about="">
        <dc:format>image/svg+xml</dc:format>
        <dc:type
           rdf:resource="http://purl.org/dc/dcmitype/StillImage" />
        <dc:title />
      </cc:Work>
    </rdf:RDF>
  </metadata>
  <g
     inkscape:label="Layer 1"
     inkscape:groupmode="layer"
     id="layer1">
    <path
       id="path1453"
       style="color:#000000;font-style:normal;font-variant:normal;font-weight:normal;font-stretch:normal;font-size:medium;line-height:normal;font-family:sans-serif;font-variant-ligatures:normal;font-variant-position:normal;font-variant-caps:normal;font-variant-numeric:normal;font-variant-alternates:normal;font-variant-east-asian:normal;font-feature-settings:normal;font-variation-settings:normal;text-indent:0;text-align:start;text-decoration:none;text-decoration-line:none;text-decoration-style:solid;text-decoration-color:#000000;letter-spacing:normal;word-spacing:normal;text-transform:none;writing-mode:lr-tb;direction:ltr;text-orientation:mixed;dominant-baseline:auto;baseline-shift:baseline;text-anchor:start;white-space:normal;shape-padding:0;shape-margin:0;inline-size:0;clip-rule:nonzero;display:inline;overflow:visible;visibility:visible;opacity:1;isolation:auto;mix-blend-mode:normal;color-interpolation:sRGB;color-interpolation-filters:linearRGB;solid-color:#000000;solid-opacity:1;vector-effect:none;fill:#000000;fill-opacity:1;fill-rule:nonzero;stroke:none;stroke-width:1.05833;stroke-linecap:round;stroke-linejoin:miter;stroke-miterlimit:4;stroke-dasharray:none;stroke-dashoffset:0;stroke-opacity:1;color-rendering:auto;image-rendering:auto;shape-rendering:auto;text-rendering:auto;enable-background:accumulate;stop-color:#000000;stop-opacity:1"
       d="M 4.0542584,3.97674 C 2.6389875,4.7783795 1.6783635,6.2910375 1.6783635,8.0297501 1.6783635,10.603959 3.7744041,12.7 6.3486132,12.7 c 2.5742088,0 4.6730228,-2.096041 4.6730228,-4.6702499 0,-1.7380989 -0.960903,-3.250577 -2.3759359,-4.0524893 -0.1424506,-0.080728 -0.2624038,-0.00522 -0.2624038,0.1585489 v 0.5319844 c 0,0.1637674 0.1118442,0.368523 0.2411204,0.4689883 0.8624564,0.6702468 1.4182423,1.7103663 1.4182423,2.8929677 0,2.0455049 -1.6485419,3.6940459 -3.6940458,3.6940459 -2.0455042,0 -3.6917345,-1.648541 -3.6917345,-3.6940459 0,-1.1832948 0.5557978,-2.2238221 1.4186601,-2.8939788 C 4.2048381,5.0353488 4.3167033,4.830637 4.3167033,4.6668696 l 0,-0.531522 c 0,-0.1637674 -0.1199723,-0.2393071 -0.2624449,-0.1586076 z"
       inkscape:path-effect="#path-effect1629"
       inkscape:original-d="M 4.3167033,3.8388206 C 2.7590596,4.5957037 1.6783635,6.1855719 1.6783635,8.0297501 1.6783635,10.603959 3.7744041,12.7 6.3486132,12.7 c 2.5742088,0 4.6730228,-2.096041 4.6730228,-4.6702499 0,-1.8435305 -1.0810143,-3.4332381 -2.6383397,-4.1904674 v 1.1250384 c 0.9985982,0.6559027 1.6593627,1.7759687 1.6593627,3.065429 0,2.0455049 -1.6485419,3.6940459 -3.6940458,3.6940459 -2.0455042,0 -3.6917345,-1.648541 -3.6917345,-3.6940459 0,-1.2901837 0.6607452,-2.410642 1.6598246,-3.0663535 z" />
    <path
       id="rect1534"
       style="opacity:1;fill:#000000;stroke:none;stroke-width:1.05833;stroke-linecap:round"
       d="M 6.3422485,4.7804331e-5 A 0.44377019,0.44377019 0 0 0 6.3200275,0.0010778 a 0.44377019,0.44377019 0 0 0 -0.024805,0.00258 0.44377025,0.44377025 0 0 0 -0.022738,0.0031 0.44377019,0.44377019 0 0 0 -0.00723,0.00155 0.44377025,0.44377025 0 0 0 -0.016536,0.00362 0.44377019,0.44377019 0 0 0 -0.012919,0.0031 0.44377025,0.44377025 0 0 0 -0.00827,0.00207 0.44377019,0.44377019 0 0 0 -0.021704,0.00723 0.44377019,0.44377019 0 0 0 -0.023771,0.00879 0.44377025,0.44377025 0 0 0 -0.016536,0.00723 0.44377019,0.44377019 0 0 0 -0.010852,0.00517 0.44377025,0.44377025 0 0 0 -0.011886,0.0062 0.44377019,0.44377019 0 0 0 -0.012402,0.00672 0.44377025,0.44377025 0 0 0 -0.0031,0.00155 0.44377019,0.44377019 0 0 0 -0.019637,0.012402 0.44377025,0.44377025 0 0 0 -0.023771,0.016536 0.44377025,0.44377025 0 0 0 -0.022221,0.01757 0.44377025,0.44377025 0 0 0 -0.012919,0.011885 0.44377019,0.44377019 0 0 0 -0.012402,0.011886 L 5.9154012,0.2506785 a 0.44377046,0.44377046 0 0 0 -0.00878,0.0093 l -1.6593353,1.659332 a 0.44377049,0.44377049 0 0 0 0,0.627352 l 0.120406,0.1209228 a 0.44377019,0.44377019 0 0 0 0.6278687,0 L 5.8192831,1.843863 V 5.7459501 A 0.44377035,0.44377035 0 0 0 6.2631836,6.1898508 H 6.4337157 A 0.44377035,0.44377035 0 0 0 6.8776165,5.7459501 V 1.8407624 l 0.8268229,0.8268229 a 0.44377025,0.44377025 0 0 0 0.6278686,0 L 8.4527141,2.5466625 a 0.44377046,0.44377046 0 0 0 0,-0.627352 L 6.7882161,0.2548126 6.663676,0.1302724 a 0.44377025,0.44377025 0 0 0 -0.018604,-0.01757 0.44377025,0.44377025 0 0 0 -0.00258,-0.00258 0.44377019,0.44377019 0 0 0 -0.014986,-0.012402 0.44377025,0.44377025 0 0 0 -0.00723,-0.00568 0.44377019,0.44377019 0 0 0 -0.0062,-0.00413 0.44377019,0.44377019 0 0 0 -0.021704,-0.015503 0.44377025,0.44377025 0 0 0 -0.022738,-0.013953 0.44377019,0.44377019 0 0 0 -0.012402,-0.00672 0.44377025,0.44377025 0 0 0 -0.011886,-0.0062 0.44377019,0.44377019 0 0 0 -0.010852,-0.00517 0.44377025,0.44377025 0 0 0 -0.016536,-0.00723 0.44377019,0.44377019 0 0 0 -0.023771,-0.00879 0.44377025,0.44377025 0 0 0 -0.021704,-0.00723 0.44377025,0.44377025 0 0 0 -0.00775,-0.00207 0.44377019,0.44377019 0 0 0 -0.018087,-0.00413 0.44377025,0.44377025 0 0 0 -0.010335,-0.00258 0.44377019,0.44377019 0 0 0 -0.013436,-0.00207 0.44377025,0.44377025 0 0 0 -0.012919,-0.00207 0.44377019,0.44377019 0 0 0 -0.00517,-5.167e-4 0.44377025,0.44377025 0 0 0 -0.023254,-0.00258 0.44377019,0.44377019 0 0 0 -0.00155,0 0.44377025,0.44377025 0 0 0 -0.022221,-0.0010299957 0.44377025,0.44377025 0 0 0 -0.015503,0 z" />
  </g>
</svg>
