<?xml version="1.0" encoding="UTF-8" standalone="no"?>
<svg
   xmlns:dc="http://purl.org/dc/elements/1.1/"
   xmlns:cc="http://creativecommons.org/ns#"
   xmlns:rdf="http://www.w3.org/1999/02/22-rdf-syntax-ns#"
   xmlns:svg="http://www.w3.org/2000/svg"
   xmlns="http://www.w3.org/2000/svg"
   xmlns:sodipodi="http://sodipodi.sourceforge.net/DTD/sodipodi-0.dtd"
   xmlns:inkscape="http://www.inkscape.org/namespaces/inkscape"
   width="48"
   height="48"
   viewBox="0 0 12.7 12.7"
   version="1.1"
   id="svg8"
   inkscape:version="1.0.2 (e86c870879, 2021-01-15)"
   sodipodi:docname="holacracy_employee.svg">
  <defs
     id="defs2">
    <inkscape:path-effect
       effect="fillet_chamfer"
       id="path-effect846"
       is_visible="true"
       lpeversion="1"
       satellites_param="F,0,0,1,0,0,0,1 @ F,0,0,1,0,0,0,1 @ F,0,0,1,0,0,0,1 @ F,0,0,1,0,0,0,1 @ F,0,0,1,0,0,0,1 @ F,0,0,1,0,0,0,1 @ F,0,0,1,0,0,0,1 @ F,0,0,1,0,0,0,1 @ F,0,0,1,0,0,0,1 @ F,0,0,1,0,0,0,1 @ F,0,0,1,0,0,0,1 @ F,0,0,1,0,0,0,1 @ F,0,0,1,0,0,0,1 | F,0,0,1,0,0,0,1 @ F,0,0,1,0,0,0,1 @ F,0,0,1,0,0,0,1 @ F,0,0,1,0,0,0,1 @ F,0,1,1,0,1.2690748,0,1 @ F,0,0,1,0,1.2690748,0,1 @ F,0,0,1,0,0,0,1 @ F,0,0,1,0,0,0,1 @ F,0,0,1,0,0,0,1 @ F,0,0,1,0,0,0,1 @ F,0,0,1,0,0,0,1 | F,0,0,1,0,0,0,1 @ F,0,0,1,0,0,0,1"
       unit="px"
       method="auto"
       mode="F"
       radius="0"
       chamfer_steps="1"
       flexible="false"
       use_knot_distance="true"
       apply_no_radius="true"
       apply_with_radius="true"
       only_selected="false"
       hide_knots="false" />
    <inkscape:path-effect
       effect="fillet_chamfer"
       id="path-effect842"
       is_visible="true"
       lpeversion="1"
       satellites_param="F,0,0,1,0,0,0,1 @ F,0,0,1,0,0,0,1 @ F,0,0,1,0,0,0,1 @ F,0,0,1,0,0,0,1 @ F,0,0,1,0,0,0,1 @ F,0,0,1,0,0,0,1 @ F,0,0,1,0,0,0,1 @ F,0,0,1,0,0,0,1 @ F,0,0,1,0,0,0,1 @ F,0,0,1,0,0,0,1 @ F,0,0,1,0,0,0,1 @ F,0,0,1,0,0,0,1 @ F,0,0,1,0,0,0,1 | F,0,0,1,0,0,0,1 @ F,0,0,1,0,0,0,1 @ F,0,0,1,0,0,0,1 @ F,0,0,1,0,0,0,1 @ F,0,1,1,0,1.2690748,0,1 @ F,0,0,1,0,1.2690748,0,1 @ F,0,0,1,0,0,0,1 @ F,0,0,1,0,0,0,1 @ F,0,0,1,0,0,0,1 @ F,0,0,1,0,0,0,1 @ F,0,0,1,0,0,0,1 | F,0,0,1,0,0,0,1 @ F,0,0,1,0,0,0,1"
       unit="px"
       method="auto"
       mode="F"
       radius="0"
       chamfer_steps="1"
       flexible="false"
       use_knot_distance="true"
       apply_no_radius="true"
       apply_with_radius="true"
       only_selected="false"
       hide_knots="false" />
  </defs>
  <sodipodi:namedview
     id="base"
     pagecolor="#ffffff"
     bordercolor="#666666"
     borderopacity="1.0"
     inkscape:pageopacity="0.0"
     inkscape:pageshadow="2"
     inkscape:zoom="11.313708"
     inkscape:cx="29.928648"
     inkscape:cy="26.097592"
     inkscape:document-units="px"
     inkscape:current-layer="layer1"
     inkscape:document-rotation="0"
     showgrid="false"
     units="px"
     inkscape:window-width="1514"
     inkscape:window-height="1010"
     inkscape:window-x="2293"
     inkscape:window-y="33"
     inkscape:window-maximized="0" />
  <metadata
     id="metadata5">
    <rdf:RDF>
      <cc:Work
         rdf:about="">
        <dc:format>image/svg+xml</dc:format>
        <dc:type
           rdf:resource="http://purl.org/dc/dcmitype/StillImage" />
        <dc:title></dc:title>
      </cc:Work>
    </rdf:RDF>
  </metadata>
  <g
     inkscape:label="Layer 1"
     inkscape:groupmode="layer"
     id="layer1">
    <circle
       style="fill:none;stroke:#000000;stroke-width:1.05833;stroke-linecap:round"
       id="path833"
       cx="6.3499999"
       cy="3.1018627"
       r="2.5726976" />
    <path
       style="opacity:0.455351;fill:#000000;stroke:none;stroke-width:4;stroke-linecap:round"
       d=""
       id="path927"
       transform="scale(0.26458333)" />
    <path
       style="opacity:0.455351;fill:#000000;stroke:none;stroke-width:4;stroke-linecap:round"
       d=""
       id="path929"
       transform="scale(0.26458333)" />
    <path
       id="path1082"
       style="color:#000000;font-style:normal;font-variant:normal;font-weight:normal;font-stretch:normal;font-size:medium;line-height:normal;font-family:sans-serif;font-variant-ligatures:normal;font-variant-position:normal;font-variant-caps:normal;font-variant-numeric:normal;font-variant-alternates:normal;font-variant-east-asian:normal;font-feature-settings:normal;font-variation-settings:normal;text-indent:0;text-align:start;text-decoration:none;text-decoration-line:none;text-decoration-style:solid;text-decoration-color:#000000;letter-spacing:normal;word-spacing:normal;text-transform:none;writing-mode:lr-tb;direction:ltr;text-orientation:mixed;dominant-baseline:auto;baseline-shift:baseline;text-anchor:start;white-space:normal;shape-padding:0;shape-margin:0;inline-size:0;clip-rule:nonzero;display:inline;overflow:visible;visibility:visible;opacity:1;isolation:auto;mix-blend-mode:normal;color-interpolation:sRGB;color-interpolation-filters:linearRGB;solid-color:#000000;solid-opacity:1;vector-effect:none;fill:#000000;fill-opacity:1;fill-rule:nonzero;stroke:none;stroke-width:0.264583;stroke-linecap:round;stroke-linejoin:miter;stroke-miterlimit:4;stroke-dasharray:none;stroke-dashoffset:0;stroke-opacity:1;color-rendering:auto;image-rendering:auto;shape-rendering:auto;text-rendering:auto;enable-background:accumulate;stop-color:#000000;stop-opacity:1"
       d="m 4.4157511,6.7937846 c -2.2902906,0 -4.20847833,1.7606454 -4.40024817,4.0405804 -0.0011392,0.01478 -0.0016564,0.02961 -0.0015503,0.04444 H 0 v 0.199987 C -5.4337463e-5,11.77976 0.56820567,12.700055 1.2691732,12.7 H 11.430827 c 0.700967,5.5e-5 1.269227,-0.92024 1.269173,-1.621208 v -0.199985 h -0.01344 c -7.6e-5,-0.01484 -7.41e-4,-0.02966 -0.0021,-0.04444 -0.191715,-2.2799524 -2.109944,-4.0405804 -4.4002485,-4.0405804 -0.294408,0 -0.5865212,0.031119 -0.8728149,0.088884 v -5.292e-4 c 4.63e-5,-3.439e-4 -1.879e-4,-7.673e-4 0,-0.00103 h 5.292e-4 c -2.067e-4,-8.731e-4 -7.144e-4,-0.00175 -0.00103,-0.00259 -2.911e-4,-7.937e-4 -3.175e-4,-0.00103 -5.292e-4,-0.00156 -0.3481784,0.069106 -0.7030921,0.1064532 -1.0604002,0.1064532 -0.3588898,0 -0.7153926,-0.03727 -1.0650514,-0.1069702 v 0.00568 C 4.9998042,6.8248673 4.7089578,6.7937846 4.4157511,6.7937846 Z m 0.3054077,0.8469767 c 0.4242059,0 0.8434128,0.063565 1.2402344,0.1860352 -0.13232,-0.040837 -0.2674909,-0.075299 -0.4041098,-0.1028359 -0.034585,-0.00697 -0.069581,-0.011978 -0.1043863,-0.018087 v -0.00414 c 0.2944796,0.051243 0.5969246,0.078522 0.8971028,0.078548 0.2987905,2.56e-5 0.5997358,-0.027224 0.8929688,-0.078032 1.783e-4,3.969e-4 2.645e-4,4.498e-4 5.291e-4,0.00103 2.646e-4,6.085e-4 8.467e-4,0.00143 0.00103,0.00206 h -5.292e-4 v 5.292e-4 5.292e-4 C 7.2102026,7.712348 7.1762996,7.717198 7.142713,7.723969 7.0060922,7.7515188 6.8709245,7.7859782 6.7386051,7.8268158 7.135438,7.7043489 7.5546727,7.6407807 7.9788395,7.6407807 c 1.9288749,0 3.5446245,1.294661 3.7062335,2.9708783 0.0011,0.01087 0.0015,0.02165 0.0016,0.03256 h 0.01137 c -0.05222,0.64872 -0.620454,1.132273 -1.269173,1.080037 H 2.2711792 C 1.6224604,11.776468 1.0542281,11.292915 1.002006,10.644195 h 0.011886 c -8.78e-5,-0.0109 7.28e-5,-0.02169 0.00103,-0.03256 0.16151,-1.6761994 1.7773735,-2.9708737 3.7062368,-2.9708737 z"
       sodipodi:nodetypes="sccccccccccsccccccsccsscsccaccccccscsccccccccs" />
  </g>
</svg>
