<?xml version="1.0" encoding="UTF-8" standalone="no"?>
<svg
   xmlns:dc="http://purl.org/dc/elements/1.1/"
   xmlns:cc="http://creativecommons.org/ns#"
   xmlns:rdf="http://www.w3.org/1999/02/22-rdf-syntax-ns#"
   xmlns:svg="http://www.w3.org/2000/svg"
   xmlns="http://www.w3.org/2000/svg"
   xmlns:sodipodi="http://sodipodi.sourceforge.net/DTD/sodipodi-0.dtd"
   xmlns:inkscape="http://www.inkscape.org/namespaces/inkscape"
   width="48"
   height="48"
   viewBox="0 0 12.7 12.7"
   version="1.1"
   id="svg890"
   inkscape:version="1.0.2 (e86c870879, 2021-01-15)"
   sodipodi:docname="holacracy_sub_circle.svg">
  <defs
     id="defs884">
    <inkscape:path-effect
       effect="fillet_chamfer"
       id="path-effect1629"
       is_visible="true"
       lpeversion="1"
       satellites_param="F,0,1,1,0,0.29652697,0,1 @ F,0,0,1,0,0,0,1 @ F,0,0,1,0,0,0,1 @ F,0,0,1,0,0,0,1 @ F,0,1,1,0,0.29652697,0,1 @ F,0,0,1,0,0.29652697,0,1 @ F,0,0,1,0,0,0,1 @ F,0,0,1,0,0,0,1 @ F,0,0,1,0,0,0,1 @ F,0,1,1,0,0.29652697,0,1"
       unit="px"
       method="auto"
       mode="F"
       radius="0"
       chamfer_steps="1"
       flexible="false"
       use_knot_distance="true"
       apply_no_radius="true"
       apply_with_radius="true"
       only_selected="false"
       hide_knots="false" />
    <inkscape:path-effect
       effect="fillet_chamfer"
       id="path-effect1608"
       is_visible="true"
       lpeversion="1"
       satellites_param="F,0,1,1,0,0.44377035,0,1 @ F,0,1,1,0,0.44377035,0,1 @ F,0,0,1,0,0.44377035,0,1 @ F,0,1,1,0,0.44377035,0,1"
       unit="px"
       method="auto"
       mode="F"
       radius="0"
       chamfer_steps="1"
       flexible="false"
       use_knot_distance="true"
       apply_no_radius="true"
       apply_with_radius="true"
       only_selected="false"
       hide_knots="false" />
    <inkscape:path-effect
       effect="fillet_chamfer"
       id="path-effect1604"
       is_visible="true"
       lpeversion="1"
       satellites_param="F,0,1,1,0,0.44377035,0,1 @ F,0,1,1,0,0.44377035,0,1 @ F,0,0,1,0,0.44377035,0,1 @ F,0,1,1,0,0.44377035,0,1"
       unit="px"
       method="auto"
       mode="F"
       radius="0"
       chamfer_steps="1"
       flexible="false"
       use_knot_distance="true"
       apply_no_radius="true"
       apply_with_radius="true"
       only_selected="false"
       hide_knots="false" />
    <inkscape:path-effect
       effect="fillet_chamfer"
       id="path-effect1599"
       is_visible="true"
       lpeversion="1"
       satellites_param="F,0,1,1,0,0.44377035,0,1 @ F,0,1,1,0,0.44377035,0,1 @ F,0,0,1,0,0.44377035,0,1 @ F,0,1,1,0,0.44377035,0,1"
       unit="px"
       method="auto"
       mode="F"
       radius="0"
       chamfer_steps="1"
       flexible="false"
       use_knot_distance="true"
       apply_no_radius="true"
       apply_with_radius="true"
       only_selected="false"
       hide_knots="false" />
    <inkscape:path-effect
       effect="fillet_chamfer"
       id="path-effect1595"
       is_visible="true"
       lpeversion="1"
       satellites_param="F,0,1,1,0,0.44377035,0,1 @ F,0,1,1,0,0.44377035,0,1 @ F,0,0,1,0,0.44377035,0,1 @ F,0,1,1,0,0.44377035,0,1"
       unit="px"
       method="auto"
       mode="F"
       radius="0"
       chamfer_steps="1"
       flexible="false"
       use_knot_distance="true"
       apply_no_radius="true"
       apply_with_radius="true"
       only_selected="false"
       hide_knots="false" />
    <inkscape:path-effect
       effect="fillet_chamfer"
       id="path-effect1590"
       is_visible="true"
       lpeversion="1"
       satellites_param="F,0,1,1,0,0.44377035,0,1 @ F,0,1,1,0,0.44377035,0,1 @ F,0,0,1,0,0.44377035,0,1 @ F,0,1,1,0,0.44377035,0,1"
       unit="px"
       method="auto"
       mode="F"
       radius="0"
       chamfer_steps="1"
       flexible="false"
       use_knot_distance="true"
       apply_no_radius="true"
       apply_with_radius="true"
       only_selected="false"
       hide_knots="false" />
    <inkscape:path-effect
       effect="fillet_chamfer"
       id="path-effect1586"
       is_visible="true"
       lpeversion="1"
       satellites_param="F,0,1,1,0,0.44377035,0,1 @ F,0,1,1,0,0.44377035,0,1 @ F,0,0,1,0,0.44377035,0,1 @ F,0,1,1,0,0.44377035,0,1"
       unit="px"
       method="auto"
       mode="F"
       radius="0"
       chamfer_steps="1"
       flexible="false"
       use_knot_distance="true"
       apply_no_radius="true"
       apply_with_radius="true"
       only_selected="false"
       hide_knots="false" />
    <inkscape:path-effect
       effect="fillet_chamfer"
       id="path-effect1582"
       is_visible="true"
       lpeversion="1"
       satellites_param="F,0,1,1,0,0.44377035,0,1 @ F,0,1,1,0,0.44377035,0,1 @ F,0,0,1,0,0.44377035,0,1 @ F,0,1,1,0,0.44377035,0,1"
       unit="px"
       method="auto"
       mode="F"
       radius="0"
       chamfer_steps="1"
       flexible="false"
       use_knot_distance="true"
       apply_no_radius="true"
       apply_with_radius="true"
       only_selected="false"
       hide_knots="false" />
    <inkscape:path-effect
       effect="fillet_chamfer"
       id="path-effect1566"
       is_visible="true"
       lpeversion="1"
       satellites_param="F,0,1,1,0,0.44377035,0,1 @ F,0,1,1,0,0.44377035,0,1 @ F,0,0,1,0,0.44377035,0,1 @ F,0,1,1,0,0.44377035,0,1"
       unit="px"
       method="auto"
       mode="F"
       radius="0"
       chamfer_steps="1"
       flexible="false"
       use_knot_distance="true"
       apply_no_radius="true"
       apply_with_radius="true"
       only_selected="false"
       hide_knots="false" />
    <inkscape:path-effect
       effect="fillet_chamfer"
       id="path-effect1563"
       is_visible="true"
       lpeversion="1"
       satellites_param="F,0,0,1,0,0,0,1 @ F,0,0,1,0,0,0,1 @ F,0,0,1,0,0,0,1 @ F,0,0,1,0,0,0,1"
       unit="px"
       method="auto"
       mode="F"
       radius="0"
       chamfer_steps="1"
       flexible="false"
       use_knot_distance="true"
       apply_no_radius="true"
       apply_with_radius="true"
       only_selected="false"
       hide_knots="false" />
    <inkscape:path-effect
       effect="fillet_chamfer"
       id="path-effect1561"
       is_visible="true"
       lpeversion="1"
       satellites_param="F,0,0,1,0,0.6148923,0,1 @ F,0,0,1,0,0.9044248,0,1 @ F,0,0,1,0,0.9044248,0,1"
       unit="px"
       method="auto"
       mode="F"
       radius="0"
       chamfer_steps="1"
       flexible="false"
       use_knot_distance="true"
       apply_no_radius="true"
       apply_with_radius="true"
       only_selected="false"
       hide_knots="false" />
  </defs>
  <sodipodi:namedview
     id="base"
     pagecolor="#ffffff"
     bordercolor="#666666"
     borderopacity="1.0"
     inkscape:pageopacity="0.0"
     inkscape:pageshadow="2"
     inkscape:zoom="5.6"
     inkscape:cx="65.414329"
     inkscape:cy="9.6430988"
     inkscape:document-units="mm"
     inkscape:current-layer="layer1"
     inkscape:document-rotation="0"
     showgrid="false"
     units="px"
     inkscape:pagecheckerboard="true"
     inkscape:object-paths="false"
     inkscape:window-width="1514"
     inkscape:window-height="1010"
     inkscape:window-x="1970"
     inkscape:window-y="0"
     inkscape:window-maximized="0" />
  <metadata
     id="metadata887">
    <rdf:RDF>
      <cc:Work
         rdf:about="">
        <dc:format>image/svg+xml</dc:format>
        <dc:type
           rdf:resource="http://purl.org/dc/dcmitype/StillImage" />
        <dc:title></dc:title>
      </cc:Work>
    </rdf:RDF>
  </metadata>
  <g
     inkscape:label="Layer 1"
     inkscape:groupmode="layer"
     id="layer1">
    <path
       id="path1453"
       style="color:#000000;font-style:normal;font-variant:normal;font-weight:normal;font-stretch:normal;font-size:medium;line-height:normal;font-family:sans-serif;font-variant-ligatures:normal;font-variant-position:normal;font-variant-caps:normal;font-variant-numeric:normal;font-variant-alternates:normal;font-variant-east-asian:normal;font-feature-settings:normal;font-variation-settings:normal;text-indent:0;text-align:start;text-decoration:none;text-decoration-line:none;text-decoration-style:solid;text-decoration-color:#000000;letter-spacing:normal;word-spacing:normal;text-transform:none;writing-mode:lr-tb;direction:ltr;text-orientation:mixed;dominant-baseline:auto;baseline-shift:baseline;text-anchor:start;white-space:normal;shape-padding:0;shape-margin:0;inline-size:0;clip-rule:nonzero;display:inline;overflow:visible;visibility:visible;opacity:1;isolation:auto;mix-blend-mode:normal;color-interpolation:sRGB;color-interpolation-filters:linearRGB;solid-color:#000000;solid-opacity:1;vector-effect:none;fill:#000000;fill-opacity:1;fill-rule:nonzero;stroke:none;stroke-width:1.05833;stroke-linecap:round;stroke-linejoin:miter;stroke-miterlimit:4;stroke-dasharray:none;stroke-dashoffset:0;stroke-opacity:1;color-rendering:auto;image-rendering:auto;shape-rendering:auto;text-rendering:auto;enable-background:accumulate;stop-color:#000000;stop-opacity:1"
       d="M 6.2574994,1.3490179 A 0.44377035,0.44377035 0 0 0 5.8192833,1.7929184 V 5.6950058 L 4.9955607,4.8712835 a 0.44377019,0.44377019 0 0 0 -0.6278686,0 L 4.247286,4.9922063 a 0.44377049,0.44377049 0 0 0 0,0.6273519 l 1.6593304,1.6593302 a 0.44377046,0.44377046 0 0 0 0.00878,0.0093 l 0.1209227,0.120406 a 0.44377019,0.44377019 0 0 0 0.012402,0.011886 0.44377025,0.44377025 0 0 0 0.012919,0.011886 0.44377025,0.44377025 0 0 0 0.022221,0.01757 0.44377025,0.44377025 0 0 0 0.023771,0.016536 0.44377019,0.44377019 0 0 0 0.019637,0.012402 0.44377025,0.44377025 0 0 0 0.0031,0.00155 0.44377019,0.44377019 0 0 0 0.012402,0.00672 0.44377025,0.44377025 0 0 0 0.011886,0.0062 0.44377019,0.44377019 0 0 0 0.010852,0.00517 0.44377025,0.44377025 0 0 0 0.016536,0.00723 0.44377019,0.44377019 0 0 0 0.023771,0.00878 0.44377019,0.44377019 0 0 0 0.021704,0.00723 0.44377025,0.44377025 0 0 0 0.00827,0.00207 0.44377019,0.44377019 0 0 0 0.012919,0.0031 0.44377025,0.44377025 0 0 0 0.016536,0.00362 0.44377019,0.44377019 0 0 0 0.00723,0.00155 0.44377025,0.44377025 0 0 0 0.022738,0.0031 0.44377019,0.44377019 0 0 0 0.024805,0.00258 0.44377019,0.44377019 0 0 0 0.022221,0.00103 0.44377025,0.44377025 0 0 0 0.015503,0 0.44377025,0.44377025 0 0 0 0.022221,-0.00103 0.44377019,0.44377019 0 0 0 0.00155,0 0.44377025,0.44377025 0 0 0 0.023254,-0.00258 0.44377019,0.44377019 0 0 0 0.00517,-5.168e-4 0.44377025,0.44377025 0 0 0 0.012919,-0.00207 0.44377019,0.44377019 0 0 0 0.013436,-0.00207 0.44377025,0.44377025 0 0 0 0.010335,-0.00258 0.44377019,0.44377019 0 0 0 0.018087,-0.00413 0.44377025,0.44377025 0 0 0 0.00775,-0.00207 0.44377025,0.44377025 0 0 0 0.021704,-0.00723 0.44377019,0.44377019 0 0 0 0.023771,-0.00878 0.44377025,0.44377025 0 0 0 0.016536,-0.00723 0.44377019,0.44377019 0 0 0 0.010852,-0.00517 0.44377025,0.44377025 0 0 0 0.011886,-0.0062 0.44377019,0.44377019 0 0 0 0.012402,-0.00672 0.44377025,0.44377025 0 0 0 0.022738,-0.013953 0.44377019,0.44377019 0 0 0 0.021704,-0.015503 0.44377019,0.44377019 0 0 0 0.0062,-0.00413 0.44377025,0.44377025 0 0 0 0.00723,-0.00568 0.44377019,0.44377019 0 0 0 0.014986,-0.012402 0.44377025,0.44377025 0 0 0 0.00258,-0.00258 0.44377025,0.44377025 0 0 0 0.018604,-0.01757 L 6.7882163,7.2840559 8.4527142,5.6195582 a 0.44377046,0.44377046 0 0 0 0,-0.6273519 L 8.3323082,4.8712835 a 0.44377025,0.44377025 0 0 0 -0.6278687,0 L 6.8776166,5.6981064 V 1.7929184 A 0.44377035,0.44377035 0 0 0 6.4337159,1.3490179 H 6.2631837 a 0.44377035,0.44377035 0 0 0 -0.00568,0 z M 4.155302,2.5954533 c -0.031282,0.00171 -0.065668,0.011865 -0.1012856,0.03204 -1.415271,0.8016393 -2.3755657,2.3147866 -2.3755657,4.0534991 0,2.5742091 2.09579,4.6699986 4.6699992,4.6699986 2.5742088,0 4.6730991,-2.0957895 4.6730991,-4.6699986 0,-1.7380986 -0.96105,-3.25107 -2.3760819,-4.0529824 C 8.5030165,2.547282 8.3834677,2.62289 8.3834677,2.7866566 v 0.5322673 c 0,0.1637673 0.1115359,0.3682399 0.2408121,0.4687051 0.8624565,0.670247 1.4185182,1.7107622 1.4185182,2.8933634 0,2.0455051 -1.6488443,3.6938316 -3.6943481,3.6938316 -2.0455043,0 -3.6917643,-1.6483265 -3.6917643,-3.6938316 0,-1.1832947 0.5561725,-2.2242401 1.4190348,-2.8943969 C 4.2050196,3.6861727 4.3165325,3.4816572 4.3165325,3.3178899 V 2.7861393 c 0,-0.1228254 -0.067383,-0.1958088 -0.1612305,-0.190686 z" />
  </g>
</svg>
